# xmcd
#
# Track frame offsets:
#	150
#	17892
#	32655
#	47351
#	65293
#	79777
#	93804
#	106924
#	122867
#	135457
#
# Disc length: 2077 seconds
#
# Revision: 1
# Processed by: cddbd v1.5.2PL0 Copyright (c) Steve Scherf et al.
# Submitted via: EZCDAudioConverter 4.0.5.1
#
DISCID=73081b0a
DTITLE=Sarah Ray - The Gift Of Love
DYEAR=1999
DGENRE=Country
TTITLE0=After All These Years (I Still Love You)
TTITLE1=You Are My Angel
TTITLE2=Daddy's Eyes
TTITLE3=I Wished Upon A Star
TTITLE4=Be Sincere
TTITLE5=The Street's Thst Paved With Gold
TTITLE6=I've Seen Forever In Your Ees
TTITLE7=The Millonaire
TTITLE8=To Last Forever
TTITLE9=You Gave Me A Child
EXTD=
EXTT0=
EXTT1=
EXTT2=
EXTT3=
EXTT4=
EXTT5=
EXTT6=
EXTT7=
EXTT8=
EXTT9=
PLAYORDER=
